<svg width="48" height="48" viewBox="0 0 48 48" fill="none" xmlns="http://www.w3.org/2000/svg">
<path d="M4.14596 12.532C4.53287 12.04 5.04241 11.374 5.45046 10.898C6.67251 9.586 6.83108 9.414 7.94318 8.444C8.273 8.188 8.66414 7.88 9.04682 7.59C6.22428 9.85 5.86486 12.352 8.45483 13.898C8.4506 13.898 8.4506 13.898 8.4506 13.902C12.0723 15.966 20.0093 15.52 26.2717 12.876C32.3375 10.316 34.5765 6.654 31.5828 4.478C28.9547 4.012 25.8214 3.958 22.5062 4.378L22.1616 3.84L22.447 2.948C24.3964 2.782 26.2485 2.822 27.8468 3.08C28.2338 3.142 28.7433 3.248 29.1239 3.324C29.8596 3.494 30.2592 3.596 30.7392 3.742C31.2297 3.88 31.6483 4.018 32.3777 4.274C33.0923 4.54 33.401 4.66 33.974 4.93C34.6156 5.20693 35.2391 5.52016 35.8409 5.868C40.6107 8.706 37.6443 13.884 29.2275 17.432C20.8338 20.968 10.1378 21.524 5.34475 18.72C5.34263 18.716 5.33629 18.712 5.32361 18.708H5.33206C2.71461 17.14 2.43975 14.864 4.14596 12.532ZM25.9842 32.372L25.9165 29.184L23.5211 26.664C15.6074 28.36 7.82901 27.996 3.50323 25.586C3.48843 25.57 3.45248 25.554 3.43768 25.538C0.989367 24.112 0.384688 22.272 0.568629 20.272C-0.00433634 23.198 -0.0508501 24.254 0.0316061 26.758C0.133091 28.326 1.09085 29.772 3.01695 30.912L3.03174 30.928C7.64295 33.64 17.2502 34.228 25.9842 32.372ZM35.9741 36.022C24.8044 40.26 10.8249 40.51 4.75275 36.588C5.40851 38.1039 6.30077 39.5183 7.39981 40.784C12.973 44.384 25.8045 44.154 36.0523 40.264C42.0505 37.99 45.835 34.964 46.8287 32.128L47.1078 31.274C47.7696 29.11 47.8943 27.308 48 25.704C47.8795 29.186 43.5431 33.146 35.9741 36.022ZM11.3175 44.184C11.6685 44.5 12.7722 45.782 18.3644 47.198C19.8761 47.514 23.6817 48.528 30.7117 47.054L30.754 46.448L30.1979 45.624C23.6754 47.084 16.4298 46.596 11.3175 44.184ZM27.4578 18.966L33.3968 23.224C33.3968 23.224 34.6675 24.09 33.4687 24.698C32.2741 25.3 29.2063 26.774 29.2063 26.774L26.1766 25.704L24.6564 26.344L27.3373 28.546L27.3585 31.972L28.9336 31.31L29.978 28.416C29.978 28.416 33.1854 27.248 34.4581 26.808C35.7373 26.378 35.566 27.85 35.566 27.85L34.936 34.872L37.0291 33.992L40.4753 24.518C40.4753 24.518 42.3021 23.678 43.5875 22.94C44.8709 22.202 45.3107 20.978 45.3107 20.978C45.3107 20.978 44.059 20.468 42.6171 20.878C41.1752 21.284 39.2956 22.008 39.2956 22.008L29.5446 18.09L27.4578 18.966ZM14.8928 5.494L18.9247 8.532L20.0262 8.376L17.8316 5.65C17.8316 5.65 17.3538 5.086 17.9965 4.952C18.6435 4.816 20.2799 4.5 20.2799 4.5L21.5104 5.43L22.3392 5.314L21.4005 3.902L21.8952 2.336L21.0939 2.446L20.1446 3.638C20.1446 3.638 18.4785 3.786 17.8231 3.838C17.1635 3.886 17.4468 3.216 17.4468 3.216L18.7111 0L17.6032 0.154L14.6856 4.172C14.6856 4.172 13.713 4.34 13.009 4.53C12.3028 4.718 11.9307 5.234 11.9307 5.234C11.9307 5.234 12.4487 5.63 13.1781 5.616C13.9139 5.602 14.8928 5.494 14.8928 5.494ZM34.8197 44.53L32.2107 43.24L31.6102 43.438L33.1558 44.746C33.1558 44.746 33.4856 45.012 33.1388 45.154C32.7921 45.294 31.9083 45.638 31.9083 45.638L31.1789 45.33L30.7455 45.478L31.3523 46.09L31.2931 46.984L31.7455 46.836L32.0838 46.11C32.0838 46.11 33.0014 45.852 33.3672 45.76C33.7308 45.666 33.6484 46.07 33.6484 46.07L33.3038 48L33.9063 47.802L35.0882 45.25C35.0882 45.25 35.6104 45.056 35.9846 44.878C36.3589 44.7 36.5069 44.372 36.5069 44.372C36.5069 44.372 36.1749 44.2 35.7648 44.286C35.3525 44.368 34.8197 44.53 34.8197 44.53Z" fill="black"/>
</svg>
